<svg xmlns="http://www.w3.org/2000/svg" width="900" height="1100" viewBox="0 0 900 1100" role="img" aria-label="Retrato ilustrativo de Firmiano Botto Pacheco">
  <defs>
    <linearGradient id="bg" x1="0" y1="0" x2="1" y2="1">
      <stop offset="0%" stop-color="#efe6d8"/>
      <stop offset="100%" stop-color="#d5c2a8"/>
    </linearGradient>
    <radialGradient id="face" cx="50%" cy="38%" r="60%">
      <stop offset="0%" stop-color="#efd2b5"/>
      <stop offset="100%" stop-color="#d9af8f"/>
    </radialGradient>
    <linearGradient id="coat" x1="0" y1="0" x2="0" y2="1">
      <stop offset="0%" stop-color="#3f4a58"/>
      <stop offset="100%" stop-color="#2a313a"/>
    </linearGradient>
  </defs>

  <rect width="900" height="1100" fill="url(#bg)"/>
  <circle cx="450" cy="350" r="235" fill="#c9b297" opacity="0.35"/>

  <g transform="translate(450 325)">
    <ellipse cx="0" cy="30" rx="168" ry="208" fill="url(#face)"/>
    <ellipse cx="-58" cy="8" rx="12" ry="8" fill="#3e2a1f"/>
    <ellipse cx="58" cy="8" rx="12" ry="8" fill="#3e2a1f"/>
    <path d="M -28 55 Q 0 70 28 55" fill="none" stroke="#7b5038" stroke-width="4" stroke-linecap="round"/>
    <path d="M -48 92 Q 0 118 48 92" fill="none" stroke="#6b4430" stroke-width="7" stroke-linecap="round"/>

    <path d="M -176 -62 Q -138 -178 0 -184 Q 138 -178 176 -62 L 176 -24 Q 92 -104 0 -104 Q -92 -104 -176 -24 Z" fill="#534139"/>
    <ellipse cx="0" cy="-132" rx="108" ry="46" fill="#655047" opacity="0.92"/>
  </g>

  <g transform="translate(450 735)">
    <path d="M -286 226 Q -176 22 0 26 Q 176 22 286 226 L 286 334 L -286 334 Z" fill="url(#coat)"/>
    <path d="M -96 48 Q 0 188 96 48" fill="#f4efe6"/>
    <ellipse cx="0" cy="30" rx="40" ry="18" fill="#bda589"/>
  </g>

  <g transform="translate(450 990)">
    <rect x="-338" y="-74" width="676" height="138" rx="18" fill="#fff8ec" stroke="#bda07e" stroke-width="3"/>
    <text x="0" y="-18" text-anchor="middle" font-family="Georgia, 'Times New Roman', serif" font-size="44" fill="#4a3220">Firmiano Botto Pacheco</text>
    <text x="0" y="32" text-anchor="middle" font-family="Georgia, 'Times New Roman', serif" font-size="27" fill="#7a5b40">Retrato ilustrativo</text>
  </g>

  <circle cx="792" cy="98" r="64" fill="#fff7eb" stroke="#bda07e" stroke-width="3"/>
  <text x="792" y="112" text-anchor="middle" font-family="Georgia, 'Times New Roman', serif" font-size="30" fill="#5a3820">FBP</text>
</svg>
